<svg xmlns="http://www.w3.org/2000/svg" xmlns:xlink="http://www.w3.org/1999/xlink" width="500" zoomAndPan="magnify" viewBox="0 0 375 112.499997" height="150" preserveAspectRatio="xMidYMid meet" version="1.0"><defs><g/><clipPath id="a397bcd706"><path d="M 14.570312 6.160156 L 137.628906 6.160156 L 137.628906 100.769531 L 14.570312 100.769531 Z M 14.570312 6.160156 " clip-rule="nonzero"/></clipPath></defs><g fill="#ffffff" fill-opacity="1"><g transform="translate(143.599195, 75.499781)"><g><path d="M 6.640625 -8.875 L 6.640625 0 L 1.75 0 L 1.75 -22.625 L 11.953125 -22.625 L 11.953125 -18.390625 L 6.640625 -18.390625 L 6.640625 -12.96875 L 11.609375 -12.96875 L 11.609375 -8.875 Z M 6.640625 -8.875 "/></g></g></g><g fill="#ffffff" fill-opacity="1"><g transform="translate(161.573682, 75.499781)"><g><path d="M 6.640625 -22.625 L 6.640625 0 L 1.75 0 L 1.75 -22.625 Z M 6.640625 -22.625 "/></g></g></g><g fill="#ffffff" fill-opacity="1"><g transform="translate(175.002214, 75.499781)"><g><path d="M 14.71875 0 L 9.828125 0 L 9.828125 -18.78125 C 9.828125 -18.96875 9.757812 -19.128906 9.625 -19.265625 C 9.5 -19.410156 9.34375 -19.484375 9.15625 -19.484375 L 7.28125 -19.484375 C 7.09375 -19.484375 6.929688 -19.410156 6.796875 -19.265625 C 6.671875 -19.128906 6.609375 -18.96875 6.609375 -18.78125 L 6.609375 0 L 1.71875 0 L 1.71875 -18.359375 C 1.71875 -21.429688 3.160156 -22.96875 6.046875 -22.96875 L 10.390625 -22.96875 C 13.273438 -22.96875 14.71875 -21.429688 14.71875 -18.359375 Z M 14.71875 0 "/></g></g></g><g fill="#ffffff" fill-opacity="1"><g transform="translate(196.158863, 75.499781)"><g><path d="M 10.734375 -22.96875 C 13.628906 -22.96875 15.078125 -21.429688 15.078125 -18.359375 L 15.078125 0 L 10.171875 0 L 10.171875 -7.59375 L 6.640625 -7.59375 L 6.640625 0 L 1.75 0 L 1.75 -18.359375 C 1.75 -21.429688 3.191406 -22.96875 6.078125 -22.96875 Z M 6.640625 -11.359375 L 10.171875 -11.359375 L 10.171875 -18.953125 C 10.171875 -19.140625 10.109375 -19.300781 9.984375 -19.4375 C 9.859375 -19.582031 9.703125 -19.65625 9.515625 -19.65625 L 7.3125 -19.65625 C 7.125 -19.65625 6.960938 -19.582031 6.828125 -19.4375 C 6.703125 -19.300781 6.640625 -19.140625 6.640625 -18.953125 Z M 6.640625 -11.359375 "/></g></g></g><g fill="#ffffff" fill-opacity="1"><g transform="translate(218.014894, 75.499781)"><g><path d="M 14.71875 0 L 9.828125 0 L 9.828125 -18.78125 C 9.828125 -18.96875 9.757812 -19.128906 9.625 -19.265625 C 9.5 -19.410156 9.34375 -19.484375 9.15625 -19.484375 L 7.28125 -19.484375 C 7.09375 -19.484375 6.929688 -19.410156 6.796875 -19.265625 C 6.671875 -19.128906 6.609375 -18.96875 6.609375 -18.78125 L 6.609375 0 L 1.71875 0 L 1.71875 -18.359375 C 1.71875 -21.429688 3.160156 -22.96875 6.046875 -22.96875 L 10.390625 -22.96875 C 13.273438 -22.96875 14.71875 -21.429688 14.71875 -18.359375 Z M 14.71875 0 "/></g></g></g><g fill="#ffffff" fill-opacity="1"><g transform="translate(239.171547, 75.499781)"><g><path d="M 10.171875 -3.703125 L 10.171875 -7.203125 L 14.828125 -7.203125 L 14.828125 -4.265625 C 14.828125 -1.191406 13.378906 0.34375 10.484375 0.34375 L 6.078125 0.34375 C 3.191406 0.34375 1.75 -1.191406 1.75 -4.265625 L 1.75 -18.359375 C 1.75 -21.429688 3.191406 -22.96875 6.078125 -22.96875 L 10.484375 -22.96875 C 13.378906 -22.96875 14.828125 -21.429688 14.828125 -18.359375 L 14.828125 -16.21875 L 10.171875 -16.21875 L 10.171875 -18.953125 C 10.171875 -19.140625 10.109375 -19.300781 9.984375 -19.4375 C 9.859375 -19.582031 9.703125 -19.65625 9.515625 -19.65625 L 7.3125 -19.65625 C 7.125 -19.65625 6.960938 -19.582031 6.828125 -19.4375 C 6.703125 -19.300781 6.640625 -19.140625 6.640625 -18.953125 L 6.640625 -3.703125 C 6.640625 -3.515625 6.703125 -3.347656 6.828125 -3.203125 C 6.960938 -3.066406 7.125 -3 7.3125 -3 L 9.515625 -3 C 9.703125 -3 9.859375 -3.066406 9.984375 -3.203125 C 10.109375 -3.347656 10.171875 -3.515625 10.171875 -3.703125 Z M 10.171875 -3.703125 "/></g></g></g><g fill="#ffffff" fill-opacity="1"><g transform="translate(260.083409, 75.499781)"><g><path d="M 6.640625 -4.0625 L 12.0625 -4.0625 L 12.0625 0 L 1.75 0 L 1.75 -22.625 L 12.0625 -22.625 L 12.0625 -18.640625 L 6.640625 -18.640625 L 6.640625 -13.328125 L 11.71875 -13.328125 L 11.71875 -9.46875 L 6.640625 -9.46875 Z M 6.640625 -4.0625 "/></g></g></g><g fill="#ffffff" fill-opacity="1"><g transform="translate(278.127823, 75.499781)"><g/></g></g><g fill="#ffffff" fill-opacity="1"><g transform="translate(290.087657, 75.499781)"><g><path d="M 10.734375 -22.96875 C 13.628906 -22.96875 15.078125 -21.429688 15.078125 -18.359375 L 15.078125 0 L 10.171875 0 L 10.171875 -7.59375 L 6.640625 -7.59375 L 6.640625 0 L 1.75 0 L 1.75 -18.359375 C 1.75 -21.429688 3.191406 -22.96875 6.078125 -22.96875 Z M 6.640625 -11.359375 L 10.171875 -11.359375 L 10.171875 -18.953125 C 10.171875 -19.140625 10.109375 -19.300781 9.984375 -19.4375 C 9.859375 -19.582031 9.703125 -19.65625 9.515625 -19.65625 L 7.3125 -19.65625 C 7.125 -19.65625 6.960938 -19.582031 6.828125 -19.4375 C 6.703125 -19.300781 6.640625 -19.140625 6.640625 -18.953125 Z M 6.640625 -11.359375 "/></g></g></g><g fill="#ffffff" fill-opacity="1"><g transform="translate(311.943691, 75.499781)"><g><path d="M 6.640625 -22.625 L 6.640625 0 L 1.75 0 L 1.75 -22.625 Z M 6.640625 -22.625 "/></g></g></g><g clip-path="url(#a397bcd706)"><path fill="#7ed957" d="M 129.058594 44.695312 L 129.058594 34.378906 C 129.058594 30.085938 125.542969 26.574219 121.25 26.574219 L 51.261719 26.574219 L 101.359375 21.105469 L 101.359375 12.015625 C 101.359375 10.226562 100.585938 8.6875 99.148438 7.617188 C 97.710938 6.550781 96.015625 6.25 94.296875 6.769531 L 32.390625 25.398438 C 30.039062 26.105469 28.492188 28.1875 28.492188 30.644531 L 28.492188 48.316406 L 49.523438 48.316406 C 53.128906 48.316406 56.078125 51.265625 56.078125 54.867188 C 56.078125 58.472656 53.128906 61.421875 49.523438 61.421875 L 21.121094 61.421875 C 17.519531 61.421875 14.570312 64.371094 14.570312 67.976562 C 14.570312 71.578125 17.519531 74.527344 21.121094 74.527344 L 68.039062 74.527344 C 71.644531 74.527344 74.589844 77.476562 74.589844 81.082031 C 74.589844 84.683594 71.640625 87.632812 68.039062 87.632812 L 48.953125 87.632812 C 45.347656 87.632812 42.402344 90.582031 42.402344 94.183594 C 42.402344 97.789062 45.351562 100.738281 48.953125 100.738281 L 121.25 100.738281 C 125.542969 100.738281 129.054688 97.222656 129.054688 92.929688 L 129.054688 82.613281 L 114.574219 82.613281 C 113.296875 82.613281 112.25 81.570312 112.25 80.289062 C 112.25 79.011719 113.296875 77.96875 114.574219 77.96875 L 133.101562 77.96875 C 135.542969 77.96875 137.53125 75.976562 137.53125 73.539062 L 137.53125 53.769531 C 137.53125 51.332031 135.542969 49.34375 133.101562 49.34375 L 106.546875 49.34375 C 105.269531 49.34375 104.222656 48.296875 104.222656 47.019531 C 104.222656 45.742188 105.265625 44.695312 106.546875 44.695312 Z M 105.839844 59.59375 C 103.59375 59.59375 101.773438 61.414062 101.773438 63.660156 C 101.773438 65.902344 103.59375 67.726562 105.839844 67.726562 C 108.085938 67.726562 109.90625 65.902344 109.90625 63.660156 C 109.90625 61.410156 108.085938 59.59375 105.839844 59.59375 Z M 96.171875 63.65625 C 96.171875 58.339844 100.523438 53.988281 105.839844 53.988281 L 132.886719 53.988281 L 132.886719 73.324219 L 105.839844 73.324219 C 100.523438 73.324219 96.171875 68.972656 96.171875 63.65625 Z M 96.171875 63.65625 " fill-opacity="1" fill-rule="evenodd"/></g></svg>