<svg xmlns="http://www.w3.org/2000/svg" xmlns:xlink="http://www.w3.org/1999/xlink" width="500" zoomAndPan="magnify" viewBox="0 0 375 112.499997" height="150" preserveAspectRatio="xMidYMid meet" version="1.0"><defs><g/><clipPath id="50b38eacec"><path d="M 12.03125 6.160156 L 135 6.160156 L 135 100.992188 L 12.03125 100.992188 Z M 12.03125 6.160156 " clip-rule="nonzero"/></clipPath></defs><g fill="#ffffff" fill-opacity="1"><g transform="translate(153.638026, 75.707198)"><g><path d="M 6.640625 -8.875 L 6.640625 0 L 1.75 0 L 1.75 -22.625 L 11.953125 -22.625 L 11.953125 -18.390625 L 6.640625 -18.390625 L 6.640625 -12.96875 L 11.609375 -12.96875 L 11.609375 -8.875 Z M 6.640625 -8.875 "/></g></g></g><g fill="#ffffff" fill-opacity="1"><g transform="translate(171.612515, 75.707198)"><g><path d="M 6.640625 -22.625 L 6.640625 0 L 1.75 0 L 1.75 -22.625 Z M 6.640625 -22.625 "/></g></g></g><g fill="#ffffff" fill-opacity="1"><g transform="translate(185.041048, 75.707198)"><g><path d="M 14.71875 0 L 9.828125 0 L 9.828125 -18.78125 C 9.828125 -18.96875 9.757812 -19.128906 9.625 -19.265625 C 9.5 -19.410156 9.34375 -19.484375 9.15625 -19.484375 L 7.28125 -19.484375 C 7.09375 -19.484375 6.929688 -19.410156 6.796875 -19.265625 C 6.671875 -19.128906 6.609375 -18.96875 6.609375 -18.78125 L 6.609375 0 L 1.71875 0 L 1.71875 -18.359375 C 1.71875 -21.429688 3.160156 -22.96875 6.046875 -22.96875 L 10.390625 -22.96875 C 13.273438 -22.96875 14.71875 -21.429688 14.71875 -18.359375 Z M 14.71875 0 "/></g></g></g><g fill="#ffffff" fill-opacity="1"><g transform="translate(206.1977, 75.707198)"><g><path d="M 10.734375 -22.96875 C 13.628906 -22.96875 15.078125 -21.429688 15.078125 -18.359375 L 15.078125 0 L 10.171875 0 L 10.171875 -7.59375 L 6.640625 -7.59375 L 6.640625 0 L 1.75 0 L 1.75 -18.359375 C 1.75 -21.429688 3.191406 -22.96875 6.078125 -22.96875 Z M 6.640625 -11.359375 L 10.171875 -11.359375 L 10.171875 -18.953125 C 10.171875 -19.140625 10.109375 -19.300781 9.984375 -19.4375 C 9.859375 -19.582031 9.703125 -19.65625 9.515625 -19.65625 L 7.3125 -19.65625 C 7.125 -19.65625 6.960938 -19.582031 6.828125 -19.4375 C 6.703125 -19.300781 6.640625 -19.140625 6.640625 -18.953125 Z M 6.640625 -11.359375 "/></g></g></g><g fill="#ffffff" fill-opacity="1"><g transform="translate(228.053733, 75.707198)"><g><path d="M 14.71875 0 L 9.828125 0 L 9.828125 -18.78125 C 9.828125 -18.96875 9.757812 -19.128906 9.625 -19.265625 C 9.5 -19.410156 9.34375 -19.484375 9.15625 -19.484375 L 7.28125 -19.484375 C 7.09375 -19.484375 6.929688 -19.410156 6.796875 -19.265625 C 6.671875 -19.128906 6.609375 -18.96875 6.609375 -18.78125 L 6.609375 0 L 1.71875 0 L 1.71875 -18.359375 C 1.71875 -21.429688 3.160156 -22.96875 6.046875 -22.96875 L 10.390625 -22.96875 C 13.273438 -22.96875 14.71875 -21.429688 14.71875 -18.359375 Z M 14.71875 0 "/></g></g></g><g fill="#ffffff" fill-opacity="1"><g transform="translate(249.21039, 75.707198)"><g><path d="M 10.171875 -3.703125 L 10.171875 -7.203125 L 14.828125 -7.203125 L 14.828125 -4.265625 C 14.828125 -1.191406 13.378906 0.34375 10.484375 0.34375 L 6.078125 0.34375 C 3.191406 0.34375 1.75 -1.191406 1.75 -4.265625 L 1.75 -18.359375 C 1.75 -21.429688 3.191406 -22.96875 6.078125 -22.96875 L 10.484375 -22.96875 C 13.378906 -22.96875 14.828125 -21.429688 14.828125 -18.359375 L 14.828125 -16.21875 L 10.171875 -16.21875 L 10.171875 -18.953125 C 10.171875 -19.140625 10.109375 -19.300781 9.984375 -19.4375 C 9.859375 -19.582031 9.703125 -19.65625 9.515625 -19.65625 L 7.3125 -19.65625 C 7.125 -19.65625 6.960938 -19.582031 6.828125 -19.4375 C 6.703125 -19.300781 6.640625 -19.140625 6.640625 -18.953125 L 6.640625 -3.703125 C 6.640625 -3.515625 6.703125 -3.347656 6.828125 -3.203125 C 6.960938 -3.066406 7.125 -3 7.3125 -3 L 9.515625 -3 C 9.703125 -3 9.859375 -3.066406 9.984375 -3.203125 C 10.109375 -3.347656 10.171875 -3.515625 10.171875 -3.703125 Z M 10.171875 -3.703125 "/></g></g></g><g fill="#ffffff" fill-opacity="1"><g transform="translate(270.122254, 75.707198)"><g><path d="M 6.640625 -4.0625 L 12.0625 -4.0625 L 12.0625 0 L 1.75 0 L 1.75 -22.625 L 12.0625 -22.625 L 12.0625 -18.640625 L 6.640625 -18.640625 L 6.640625 -13.328125 L 11.71875 -13.328125 L 11.71875 -9.46875 L 6.640625 -9.46875 Z M 6.640625 -4.0625 "/></g></g></g><g fill="#ffffff" fill-opacity="1"><g transform="translate(288.16667, 75.707198)"><g><path d="M 2.0625 -2.171875 C 2.0625 -2.867188 2.304688 -3.460938 2.796875 -3.953125 C 3.285156 -4.441406 3.878906 -4.6875 4.578125 -4.6875 C 5.273438 -4.6875 5.867188 -4.441406 6.359375 -3.953125 C 6.847656 -3.460938 7.09375 -2.867188 7.09375 -2.171875 C 7.09375 -1.472656 6.847656 -0.878906 6.359375 -0.390625 C 5.867188 0.0976562 5.273438 0.34375 4.578125 0.34375 C 3.878906 0.34375 3.285156 0.0976562 2.796875 -0.390625 C 2.304688 -0.878906 2.0625 -1.472656 2.0625 -2.171875 Z M 2.0625 -2.171875 "/></g></g></g><g fill="#ffffff" fill-opacity="1"><g transform="translate(301.944894, 75.707198)"><g><path d="M 10.734375 -22.96875 C 13.628906 -22.96875 15.078125 -21.429688 15.078125 -18.359375 L 15.078125 0 L 10.171875 0 L 10.171875 -7.59375 L 6.640625 -7.59375 L 6.640625 0 L 1.75 0 L 1.75 -18.359375 C 1.75 -21.429688 3.191406 -22.96875 6.078125 -22.96875 Z M 6.640625 -11.359375 L 10.171875 -11.359375 L 10.171875 -18.953125 C 10.171875 -19.140625 10.109375 -19.300781 9.984375 -19.4375 C 9.859375 -19.582031 9.703125 -19.65625 9.515625 -19.65625 L 7.3125 -19.65625 C 7.125 -19.65625 6.960938 -19.582031 6.828125 -19.4375 C 6.703125 -19.300781 6.640625 -19.140625 6.640625 -18.953125 Z M 6.640625 -11.359375 "/></g></g></g><g fill="#ffffff" fill-opacity="1"><g transform="translate(323.800932, 75.707198)"><g><path d="M 6.640625 -22.625 L 6.640625 0 L 1.75 0 L 1.75 -22.625 Z M 6.640625 -22.625 "/></g></g></g><g clip-path="url(#50b38eacec)"><path fill="#7ed957" d="M 126.519531 44.691406 L 126.519531 34.375 C 126.519531 30.082031 123.003906 26.570312 118.710938 26.570312 L 48.722656 26.570312 L 98.820312 21.101562 L 98.820312 12.011719 C 98.820312 10.222656 98.042969 8.683594 96.605469 7.613281 C 95.171875 6.546875 93.472656 6.246094 91.757812 6.765625 L 29.851562 25.394531 C 27.5 26.101562 25.953125 28.183594 25.953125 30.640625 L 25.953125 48.3125 L 46.984375 48.3125 C 50.589844 48.3125 53.535156 51.261719 53.535156 54.863281 C 53.535156 58.46875 50.585938 61.417969 46.984375 61.417969 L 18.582031 61.417969 C 14.980469 61.417969 12.03125 64.367188 12.03125 67.972656 C 12.03125 71.574219 14.980469 74.523438 18.582031 74.523438 L 65.496094 74.523438 C 69.101562 74.523438 72.050781 77.472656 72.050781 81.074219 C 72.050781 84.679688 69.101562 87.628906 65.496094 87.628906 L 46.414062 87.628906 C 42.808594 87.628906 39.863281 90.578125 39.863281 94.179688 C 39.863281 97.785156 42.8125 100.730469 46.414062 100.730469 L 118.707031 100.730469 C 123.003906 100.730469 126.515625 97.21875 126.515625 92.925781 L 126.515625 82.609375 L 112.035156 82.609375 C 110.757812 82.609375 109.710938 81.5625 109.710938 80.285156 C 109.710938 79.007812 110.757812 77.964844 112.035156 77.964844 L 130.5625 77.964844 C 133 77.964844 134.992188 75.972656 134.992188 73.535156 L 134.992188 53.765625 C 134.992188 51.328125 133.003906 49.335938 130.5625 49.335938 L 104.007812 49.335938 C 102.726562 49.335938 101.683594 48.292969 101.683594 47.015625 C 101.683594 45.738281 102.726562 44.691406 104.007812 44.691406 Z M 103.300781 59.585938 C 101.054688 59.585938 99.234375 61.40625 99.234375 63.652344 C 99.234375 65.898438 101.054688 67.71875 103.300781 67.71875 C 105.542969 67.71875 107.367188 65.898438 107.367188 63.652344 C 107.367188 61.40625 105.542969 59.585938 103.300781 59.585938 Z M 93.632812 63.652344 C 93.632812 58.335938 97.980469 53.984375 103.300781 53.984375 L 130.347656 53.984375 L 130.347656 73.316406 L 103.300781 73.316406 C 97.984375 73.316406 93.632812 68.96875 93.632812 63.652344 Z M 93.632812 63.652344 " fill-opacity="1" fill-rule="evenodd"/></g></svg>